<svg xmlns="http://www.w3.org/2000/svg" width="512" height="512">
    <path style="stroke:none;fill-rule:nonzero;fill:#000;fill-opacity:1" d="M256 64C150.152 64 64 150.152 64 256s86.152 192 192 192 192-86.152 192-192S361.848 64 256 64Zm0 32c88.555 0 160 71.445 160 160 0 80.438-59.012 146.582-136.188 158.063V302.656h45.563l7.156-46.281h-52.719v-25.281c0-19.215 6.313-36.281 24.282-36.281h28.875v-40.375c-5.07-.688-15.805-2.188-36.094-2.188-42.367 0-67.188 22.367-67.188 73.344v30.781h-43.562v46.281h43.563v111C153.742 401.13 96 335.57 96 256c0-88.555 71.445-160 160-160Zm0 0"/>
</svg>
