<svg xmlns="http://www.w3.org/2000/svg" width="512" height="512">
    <path style="stroke:none;fill-rule:evenodd;fill:#000;fill-opacity:1" d="M256 64C149.937 64 64 149.938 64 256c0 84.813 55 156.813 131.313 182.188 9.625 1.75 13.125-4.125 13.125-9.25 0-4.563-.188-16.625-.25-32.625-53.438 11.562-64.688-25.75-64.688-25.75-8.75-22.188-21.313-28.125-21.313-28.125-17.437-11.875 1.313-11.625 1.313-11.625 19.25 1.375 29.375 19.75 29.375 19.75 17.125 29.375 44.938 20.875 55.875 16 1.75-12.438 6.75-20.875 12.188-25.688C178.313 336.062 133.5 319.562 133.5 246c0-21 7.5-38.125 19.75-51.563-1.938-4.812-8.563-24.375 1.875-50.812 0 0 16.125-5.125 52.813 19.688 15.312-4.25 31.75-6.375 48.062-6.438 16.313.063 32.75 2.188 48.063 6.438 36.687-24.813 52.75-19.688 52.75-19.688 10.5 26.438 3.937 46 1.937 50.813C371.063 207.875 378.438 225 378.438 246c0 73.75-44.875 89.938-87.625 94.75 6.875 5.875 13 17.625 13 35.5 0 25.688-.188 46.375-.188 52.688 0 5.125 3.438 11.125 13.188 9.25C393.063 412.75 448 340.813 448 256c0-106.063-85.938-192-192-192Zm0 0"/>
</svg>
