<svg xmlns="http://www.w3.org/2000/svg" width="112.046" height="79.009" viewBox="0 0 112.046 79.009">
  <g id="Plain" transform="translate(-24.991 -42)">
    <path id="Path_1" data-name="Path 1" d="M47.805,73a18,18,0,0,0,18,18h27a5,5,0,0,0,5-5V52a10,10,0,0,0-10-10h-35a5,5,0,0,0-5,5Z" fill="#fff1da"/>
    <path id="Path_2" data-name="Path 2" d="M96.389,86.941A11.889,11.889,0,0,0,92.5,88.6c-3.141,2-4.968,4.858-4.081,6.38s4.152,1.133,7.293-.868A12.384,12.384,0,0,0,98.9,91.256a1.565,1.565,0,0,0,.188-1.722l-1.152-1.977A1.412,1.412,0,0,0,96.389,86.941Z" fill="#d5d6db"/>
    <path id="Path_3" data-name="Path 3" d="M88.5,59.948a8.627,8.627,0,0,0-2.819,1.2c-2.277,1.451-3.6,3.522-2.96,4.625s3.011.82,5.288-.63a8.988,8.988,0,0,0,2.313-2.069,1.134,1.134,0,0,0,.136-1.248l-.834-1.432A1.023,1.023,0,0,0,88.5,59.948Z" fill="#d5d6db"/>
    <path id="Path_4" data-name="Path 4" d="M75.688,61.079a1.02,1.02,0,0,0-.656.163L69.684,64.65a.942.942,0,0,0-.4,1.223.694.694,0,0,0,.209.225l13.182,9.085,17.834-11.365Z" fill="#029bc5"/>
    <path id="Path_5" data-name="Path 5" d="M132.065,59.794,83.533,90.346,54.82,101.772l-14.643,2.91-1.611-2.737L119.461,52a17.994,17.994,0,0,1,7.785-2.66,14.212,14.212,0,0,1,3.462.116,9.66,9.66,0,0,1,2.8.863c.964.478,2.8.533,3.393,1.486C136.9,51.8,138.3,56.178,132.065,59.794Z" fill="#e1e6e9"/>
    <path id="Path_6" data-name="Path 6" d="M84.176,86.3l-21,33.47a.794.794,0,0,0,.347,1.175,1.016,1.016,0,0,0,.906-.115l5.344-3.39a10.486,10.486,0,0,0,2.674-2.435L113.169,67.14Z" fill="#029bc5"/>
    <path id="Path_7" data-name="Path 7" d="M31.2,85.186a1.318,1.318,0,0,0-1.119.166L25.66,88.166a1.267,1.267,0,0,0-.536,1.645.935.935,0,0,0,.225.26l12.377,9.912,13.013-8.128Z" fill="#029bc5"/>
    <path id="Path_8" data-name="Path 8" d="M41.874,101.771,35.213,111.1a.251.251,0,0,0,.051.376.3.3,0,0,0,.316-.024l4.128-2.616a.382.382,0,0,0,.085-.075l9.734-11.835Z" fill="#029bc5"/>
    <path id="Path_9" data-name="Path 9" d="M129.911,49.857a14.489,14.489,0,0,0-3.565-.118,12.1,12.1,0,0,0-2.189,5.379.579.579,0,0,0,.678.6.834.834,0,0,0,.353-.125l7.608-4.844A9.889,9.889,0,0,0,129.911,49.857Z" fill="#029bc5"/>
    <path id="Path_10" data-name="Path 10" d="M113.332,58.765l4.967-3.137,4.627,7.869-4.967,3.137Z" fill="#d5d6db"/>
    <path id="Path_11" data-name="Path 11" d="M110.207,61.877a1.25,1.25,0,0,0-.534,1.628l.492.842a1.164,1.164,0,0,0,1.651.2,1.252,1.252,0,0,0,.516-1.571l-.492-.842A1.148,1.148,0,0,0,110.207,61.877Z" fill="#3a556a"/>
    <path id="Path_12" data-name="Path 12" d="M105.742,64.65a1.251,1.251,0,0,0-.534,1.628l.493.842a1.164,1.164,0,0,0,1.651.2,1.254,1.254,0,0,0,.516-1.571l-.493-.842A1.148,1.148,0,0,0,105.742,64.65Z" fill="#3a556a"/>
    <path id="Path_13" data-name="Path 13" d="M101.276,67.423a1.251,1.251,0,0,0-.532,1.627l.492.842a1.164,1.164,0,0,0,1.651.2,1.252,1.252,0,0,0,.516-1.571l-.492-.842A1.149,1.149,0,0,0,101.276,67.423Z" fill="#3a556a"/>
    <path id="Path_14" data-name="Path 14" d="M96.812,70.2a1.251,1.251,0,0,0-.533,1.627l.492.842a1.164,1.164,0,0,0,1.651.2,1.253,1.253,0,0,0,.515-1.572l-.492-.842A1.149,1.149,0,0,0,96.812,70.2Z" fill="#3a556a"/>
    <path id="Path_15" data-name="Path 15" d="M92.348,72.968a1.251,1.251,0,0,0-.533,1.628l.493.842a1.148,1.148,0,0,0,1.633.254,1.25,1.25,0,0,0,.534-1.626l-.493-.842a1.147,1.147,0,0,0-1.633-.256Z" fill="#3a556a"/>
    <path id="Path_16" data-name="Path 16" d="M87.884,75.741a1.251,1.251,0,0,0-.533,1.628l.493.842a1.148,1.148,0,0,0,1.633.254,1.25,1.25,0,0,0,.534-1.626L89.518,76a1.147,1.147,0,0,0-1.633-.256Z" fill="#3a556a"/>
    <path id="Path_17" data-name="Path 17" d="M83.419,78.513a1.251,1.251,0,0,0-.533,1.628l.493.842a1.148,1.148,0,0,0,1.634.252,1.25,1.25,0,0,0,.533-1.624l-.493-.842A1.148,1.148,0,0,0,83.419,78.513Z" fill="#3a556a"/>
    <path id="Path_18" data-name="Path 18" d="M78.954,81.286a1.251,1.251,0,0,0-.533,1.628l.493.842a1.148,1.148,0,0,0,1.634.252,1.25,1.25,0,0,0,.533-1.624l-.493-.842A1.148,1.148,0,0,0,78.954,81.286Z" fill="#3a556a"/>
    <path id="Path_19" data-name="Path 19" d="M74.49,84.058a1.251,1.251,0,0,0-.533,1.628l.493.842a1.148,1.148,0,0,0,1.634.252,1.25,1.25,0,0,0,.533-1.624l-.493-.842A1.149,1.149,0,0,0,74.49,84.058Z" fill="#3a556a"/>
    <path id="Path_20" data-name="Path 20" d="M70.024,86.831a1.25,1.25,0,0,0-.534,1.627h0l.493.842a1.148,1.148,0,0,0,1.634.252,1.25,1.25,0,0,0,.533-1.624l-.493-.842A1.148,1.148,0,0,0,70.024,86.831Z" fill="#3a556a"/>
    <path id="Path_21" data-name="Path 21" d="M65.561,89.6a1.25,1.25,0,0,0-.534,1.626h0l.493.842a1.148,1.148,0,0,0,1.634.252,1.25,1.25,0,0,0,.533-1.624l-.493-.842A1.149,1.149,0,0,0,65.561,89.6Z" fill="#3a556a"/>
  </g>
</svg>
